<svg width="20" height="21" viewBox="0 0 20 21" fill="none" xmlns="http://www.w3.org/2000/svg">
<path d="M5.17383 6.4099H14.5026V4.44594C14.5026 2.48198 13.7662 1.5 11.5567 1.5H8.11977C5.91031 1.5 5.17383 2.48198 5.17383 4.44594V6.4099Z" stroke="#6F7C94" stroke-width="1.5" stroke-miterlimit="10" stroke-linecap="round" stroke-linejoin="round"/>
<path d="M13.766 14.2657V16.0726C13.766 18.0365 12.784 19.0185 10.8201 19.0185H8.8561C6.89214 19.0185 5.91016 18.0365 5.91016 16.0726V14.2657H13.766Z" stroke="#6F7C94" stroke-width="1.5" stroke-miterlimit="10" stroke-linecap="round" stroke-linejoin="round"/>
<path d="M18.6756 9.35585V14.2657C18.6756 16.2297 17.6937 17.2117 15.7297 17.2117H13.7657V14.2657H5.9099V17.2117H3.94594C1.98198 17.2117 1 16.2297 1 14.2657V9.35585C1 7.39189 1.98198 6.40991 3.94594 6.40991H15.7297C17.6937 6.40991 18.6756 7.39189 18.6756 9.35585Z" stroke="#6F7C94" stroke-width="1.5" stroke-miterlimit="10" stroke-linecap="round" stroke-linejoin="round"/>
<path d="M14.7475 14.2657H13.5593H4.92773" stroke="#6F7C94" stroke-width="1.5" stroke-miterlimit="10" stroke-linecap="round" stroke-linejoin="round"/>
<path d="M4.92773 10.3378H7.87367" stroke="#6F7C94" stroke-width="1.5" stroke-miterlimit="10" stroke-linecap="round" stroke-linejoin="round"/>
</svg>
